<svg width="58" height="58" viewBox="0 0 58 58" fill="none" xmlns="http://www.w3.org/2000/svg" xmlns:xlink="http://www.w3.org/1999/xlink">
<path d="M20.205,1.908C14.41,3.918 9.412,7.734 5.946,12.794C2.48,17.855 0.728,23.894 0.947,30.024C1.167,36.154 3.346,42.052 7.166,46.852C10.985,51.651 16.243,55.1 22.167,56.691C26.97,57.93 32.001,57.984 36.83,56.849C41.204,55.867 45.248,53.765 48.566,50.75C52.019,47.516 54.526,43.403 55.816,38.851C57.218,33.901 57.467,28.696 56.545,23.635L29.575,23.635L29.575,34.823L45.195,34.823C44.882,36.607 44.214,38.31 43.228,39.83C42.242,41.35 40.96,42.655 39.458,43.668C37.551,44.93 35.401,45.779 33.146,46.16C30.885,46.581 28.565,46.581 26.304,46.16C24.012,45.687 21.843,44.741 19.937,43.382C16.875,41.214 14.576,38.135 13.367,34.583C12.139,30.964 12.139,27.041 13.367,23.422C14.227,20.886 15.649,18.576 17.527,16.666C19.676,14.44 22.396,12.849 25.389,12.067C28.383,11.285 31.534,11.343 34.496,12.234C36.811,12.945 38.927,14.186 40.677,15.859C42.438,14.107 44.196,12.351 45.951,10.59C46.858,9.643 47.845,8.741 48.738,7.771C46.067,5.286 42.932,3.352 39.512,2.08C33.285,-0.181 26.471,-0.242 20.205,1.908Z" fill="#FFFFFF"/>
<path d="M20.205,1.908C26.471,-0.244 33.285,-0.184 39.513,2.075C42.933,3.356 46.066,5.299 48.734,7.794C47.827,8.763 46.871,9.67 45.947,10.612C44.189,12.367 42.432,14.116 40.677,15.859C38.927,14.186 36.811,12.945 34.496,12.234C31.535,11.34 28.384,11.279 25.39,12.057C22.395,12.836 19.673,14.424 17.522,16.648C15.645,18.558 14.223,20.867 13.363,23.404L3.969,16.131C7.332,9.464 13.153,4.364 20.205,1.908Z" fill="#E33629"/>
<path d="M1.477,23.336C1.982,20.834 2.82,18.41 3.969,16.131L13.363,23.422C12.134,27.041 12.134,30.964 13.363,34.583C10.233,36.999 7.102,39.428 3.969,41.869C1.093,36.143 0.215,29.619 1.477,23.336Z" fill="#F8BD00"/>
<path d="M29.576,23.63L56.545,23.63C57.467,28.692 57.218,33.897 55.816,38.846C54.526,43.398 52.019,47.512 48.566,50.745C45.535,48.38 42.49,46.033 39.458,43.668C40.961,42.654 42.244,41.347 43.23,39.826C44.215,38.304 44.884,36.6 45.195,34.814L29.576,34.814C29.571,31.089 29.576,27.36 29.576,23.63Z" fill="#587DBD"/>
<path d="M3.965,41.869C7.097,39.452 10.229,37.023 13.358,34.582C14.569,38.136 16.872,41.216 19.938,43.382C21.849,44.734 24.022,45.672 26.317,46.137C28.579,46.558 30.898,46.558 33.16,46.137C35.415,45.756 37.565,44.907 39.472,43.645C42.503,46.01 45.548,48.357 48.579,50.723C45.262,53.739 41.218,55.842 36.844,56.826C32.015,57.961 26.983,57.907 22.18,56.668C18.382,55.653 14.834,53.866 11.759,51.416C8.504,48.832 5.845,45.575 3.965,41.869Z" fill="#319F43"/>
</svg>
