<svg width="30" height="32" viewBox="0 0 30 32" fill="none" xmlns="http://www.w3.org/2000/svg" xmlns:xlink="http://www.w3.org/1999/xlink">
<path d="M15.833,29.5C15.833,30.559 16.691,31.417 17.75,31.417C18.809,31.417 19.667,30.559 19.667,29.5L15.833,29.5ZM8.333,29.5C8.333,30.559 9.191,31.417 10.25,31.417C11.309,31.417 12.167,30.559 12.167,29.5L8.333,29.5ZM19.667,29.5L19.667,22L15.833,22L15.833,29.5L19.667,29.5ZM19.667,22C19.667,21.094 19.307,20.225 18.666,19.584L15.955,22.295C15.877,22.216 15.833,22.111 15.833,22L19.667,22ZM18.666,19.584C18.025,18.943 17.156,18.583 16.25,18.583L16.25,22.417C16.14,22.417 16.034,22.373 15.955,22.295L18.666,19.584ZM16.25,18.583L11.75,18.583L11.75,22.417L16.25,22.417L16.25,18.583ZM11.75,18.583C10.844,18.583 9.975,18.943 9.334,19.584L12.045,22.295C11.966,22.373 11.861,22.417 11.75,22.417L11.75,18.583ZM9.334,19.584C8.693,20.225 8.333,21.094 8.333,22L12.167,22C12.167,22.111 12.123,22.216 12.045,22.295L9.334,19.584ZM8.333,22L8.333,29.5L12.167,29.5L12.167,22L8.333,22Z" fill="#B4B3AF"/>
<path d="M2.932,4.772L1.072,4.308L1.072,4.308L2.932,4.772ZM3.748,2.818L2.569,1.306L2.567,1.308L3.748,2.818ZM24.253,2.818L25.436,1.31L25.431,1.306L24.253,2.818ZM25.069,4.772L26.928,4.308L26.928,4.308L25.069,4.772ZM26.873,11.993L25.014,12.458L25.014,12.458L26.873,11.993ZM27.076,13.102L25.164,12.969L25.163,12.971L27.076,13.102ZM26.041,14.426L25.451,12.603L25.445,12.605L26.041,14.426ZM23.362,14.422L23.797,12.555L23.796,12.555L23.362,14.422ZM21.272,12.652L23.042,11.916L23.039,11.91L21.272,12.652ZM20.947,11.178L22.837,10.864L22.837,10.862L20.947,11.178ZM20.872,10.825L19.319,11.949L19.329,11.962L20.872,10.825ZM20.75,10.763L20.75,8.846L20.75,10.763ZM20.629,10.825L22.172,11.962L22.181,11.949L20.629,10.825ZM20.554,11.178L22.444,11.491L22.444,11.49L20.554,11.178ZM20.432,11.911L18.541,11.598L18.537,11.623L18.533,11.649L20.432,11.911ZM17.528,14.5L17.528,16.417L17.55,16.417L17.571,16.416L17.528,14.5ZM17.222,14.5L17.179,16.416L17.2,16.417L17.222,16.417L17.222,14.5ZM14.318,11.911L16.217,11.649L16.213,11.624L16.209,11.598L14.318,11.911ZM14.197,11.176L16.088,10.863L16.087,10.859L14.197,11.176ZM14.122,10.825L12.569,11.949L12.579,11.962L14.122,10.825ZM14,10.763L14,8.846L14,10.763ZM13.879,10.825L15.422,11.962L15.431,11.949L13.879,10.825ZM13.804,11.178L15.694,11.491L15.694,11.49L13.804,11.178ZM13.682,11.911L11.791,11.598L11.787,11.623L11.783,11.649L13.682,11.911ZM10.778,14.5L10.778,16.417L10.8,16.417L10.821,16.416L10.778,14.5ZM10.472,14.5L10.427,16.416L10.45,16.417L10.472,16.417L10.472,14.5ZM7.595,12.061L9.478,11.703L9.473,11.678L9.468,11.653L7.595,12.061ZM7.568,11.911L9.466,11.641L9.463,11.62L9.459,11.598L7.568,11.911ZM7.447,11.176L9.338,10.863L9.337,10.859L7.447,11.176ZM7.372,10.825L5.819,11.949L5.829,11.962L7.372,10.825ZM7.25,10.763L7.25,8.846L7.25,10.763ZM7.129,10.825L8.672,11.962L8.681,11.949L7.129,10.825ZM7.054,11.178L5.163,10.865L5.163,10.865L7.054,11.178ZM6.728,12.652L4.96,11.913L4.958,11.916L6.728,12.652ZM4.64,14.422L5.073,16.289L5.076,16.288L4.64,14.422ZM1.96,14.426L2.555,12.605L2.549,12.603L1.96,14.426ZM0.925,13.102L-0.988,13.223L-0.988,13.233L0.925,13.102ZM1.127,11.993L2.986,12.458L2.987,12.458L1.127,11.993ZM1.583,14.5L1.583,23.5L5.417,23.5L5.417,14.5L1.583,14.5ZM1.583,23.5C1.583,24.86 1.579,26.073 1.71,27.047C1.849,28.077 2.169,29.122 3.024,29.976L5.734,27.266C5.71,27.241 5.591,27.14 5.509,26.536C5.421,25.877 5.417,24.969 5.417,23.5L1.583,23.5ZM3.024,29.976C3.878,30.831 4.923,31.151 5.953,31.29C6.927,31.421 8.14,31.417 9.5,31.417L9.5,27.583C8.031,27.583 7.123,27.579 6.464,27.491C5.86,27.409 5.759,27.29 5.734,27.266L3.024,29.976ZM9.5,31.417L18.5,31.417L18.5,27.583L9.5,27.583L9.5,31.417ZM18.5,31.417C19.86,31.417 21.073,31.421 22.047,31.29C23.077,31.151 24.122,30.831 24.976,29.976L22.266,27.266C22.241,27.29 22.14,27.409 21.536,27.491C20.877,27.579 19.969,27.583 18.5,27.583L18.5,31.417ZM24.976,29.976C25.831,29.122 26.151,28.077 26.29,27.047C26.421,26.073 26.417,24.86 26.417,23.5L22.583,23.5C22.583,24.969 22.579,25.877 22.491,26.536C22.409,27.14 22.29,27.241 22.266,27.266L24.976,29.976ZM26.417,23.5L26.417,14.5L22.583,14.5L22.583,23.5L26.417,23.5ZM4.791,5.237C4.861,4.958 4.915,4.743 4.965,4.559C5.016,4.374 5.053,4.261 5.08,4.188C5.131,4.056 5.101,4.192 4.929,4.328L2.567,1.308C1.987,1.762 1.686,2.33 1.499,2.822C1.329,3.267 1.197,3.807 1.072,4.308L4.791,5.237ZM4.926,4.33C4.753,4.464 4.613,4.46 4.754,4.443C4.832,4.434 4.951,4.426 5.142,4.421C5.333,4.417 5.555,4.417 5.843,4.417L5.843,0.583C5.327,0.583 4.771,0.58 4.299,0.637C3.775,0.699 3.15,0.854 2.569,1.306L4.926,4.33ZM5.843,4.417L22.157,4.417L22.157,0.583L5.843,0.583L5.843,4.417ZM22.157,4.417C22.445,4.417 22.667,4.417 22.858,4.421C23.049,4.426 23.168,4.434 23.246,4.443C23.387,4.46 23.247,4.464 23.074,4.33L25.431,1.306C24.85,0.854 24.225,0.699 23.701,0.637C23.229,0.58 22.673,0.583 22.157,0.583L22.157,4.417ZM23.069,4.325C22.897,4.191 22.869,4.056 22.919,4.189C22.947,4.262 22.984,4.376 23.035,4.56C23.085,4.743 23.139,4.959 23.209,5.237L26.928,4.308C26.802,3.805 26.67,3.266 26.501,2.821C26.313,2.33 26.013,1.763 25.436,1.311L23.069,4.325ZM23.209,5.237L25.014,12.458L28.733,11.529L26.928,4.308L23.209,5.237ZM25.014,12.458C25.051,12.607 25.08,12.725 25.105,12.827C25.129,12.929 25.145,12.998 25.155,13.048C25.176,13.158 25.155,13.098 25.164,12.969L28.988,13.235C29.013,12.869 28.963,12.545 28.915,12.306C28.869,12.072 28.8,11.798 28.732,11.529L25.014,12.458ZM25.163,12.971C25.169,12.888 25.2,12.808 25.251,12.743L28.271,15.103C28.691,14.565 28.941,13.914 28.988,13.233L25.163,12.971ZM25.251,12.743C25.302,12.677 25.372,12.628 25.451,12.603L26.63,16.25C27.28,16.04 27.851,15.641 28.271,15.103L25.251,12.743ZM25.445,12.605C25.571,12.563 25.635,12.571 25.517,12.577C25.396,12.583 25.223,12.583 24.896,12.583L24.896,16.417C25.183,16.417 25.47,16.417 25.711,16.405C25.955,16.393 26.285,16.363 26.636,16.248L25.445,12.605ZM24.896,12.583C23.991,12.583 23.863,12.571 23.797,12.555L22.926,16.289C23.529,16.429 24.202,16.417 24.896,16.417L24.896,12.583ZM23.796,12.555C23.629,12.516 23.473,12.438 23.342,12.327L20.864,15.252C21.46,15.756 22.167,16.112 22.927,16.289L23.796,12.555ZM23.342,12.327C23.211,12.216 23.108,12.075 23.042,11.916L19.502,13.388C19.802,14.108 20.269,14.747 20.864,15.252L23.342,12.327ZM23.039,11.91C23.014,11.85 22.982,11.735 22.837,10.864L19.056,11.491C19.166,12.159 19.263,12.818 19.505,13.394L23.039,11.91ZM22.837,10.862C22.822,10.77 22.802,10.649 22.782,10.551C22.772,10.503 22.754,10.415 22.724,10.316C22.711,10.271 22.631,9.981 22.415,9.688L19.329,11.962C19.209,11.799 19.143,11.654 19.113,11.584C19.08,11.505 19.06,11.441 19.05,11.408C19.039,11.371 19.032,11.344 19.029,11.332C19.028,11.324 19.027,11.319 19.026,11.316C19.025,11.312 19.025,11.311 19.025,11.31C19.025,11.31 19.025,11.314 19.027,11.324C19.029,11.333 19.031,11.345 19.034,11.362C19.04,11.396 19.047,11.437 19.056,11.493L22.837,10.862ZM22.424,9.701C22.232,9.436 21.981,9.221 21.69,9.072L19.947,12.486C19.698,12.359 19.483,12.175 19.319,11.949L22.424,9.701ZM21.69,9.072C21.399,8.924 21.077,8.846 20.75,8.846L20.75,12.68C20.471,12.68 20.195,12.613 19.947,12.486L21.69,9.072ZM20.75,8.846C20.423,8.846 20.101,8.924 19.81,9.072L21.553,12.486C21.305,12.613 21.029,12.68 20.75,12.68L20.75,8.846ZM19.81,9.072C19.519,9.221 19.268,9.436 19.076,9.701L22.181,11.949C22.017,12.175 21.802,12.359 21.553,12.486L19.81,9.072ZM19.086,9.688C18.871,9.979 18.791,10.264 18.777,10.312C18.747,10.412 18.728,10.501 18.718,10.55C18.698,10.649 18.678,10.77 18.663,10.865L22.444,11.49C22.454,11.435 22.46,11.394 22.466,11.361C22.469,11.344 22.471,11.332 22.473,11.323C22.475,11.314 22.475,11.311 22.475,11.311C22.475,11.311 22.473,11.319 22.47,11.333C22.467,11.347 22.46,11.374 22.449,11.411C22.439,11.445 22.419,11.509 22.385,11.588C22.355,11.659 22.29,11.802 22.172,11.962L19.086,9.688ZM18.663,10.864L18.541,11.598L22.323,12.224L22.444,11.491L18.663,10.864ZM18.533,11.649C18.498,11.904 18.373,12.138 18.181,12.309L20.732,15.171C21.604,14.393 22.171,13.331 22.331,12.173L18.533,11.649ZM18.181,12.309C17.989,12.481 17.742,12.578 17.485,12.584L17.571,16.416C18.739,16.39 19.86,15.948 20.732,15.171L18.181,12.309ZM17.528,12.583L17.222,12.583L17.222,16.417L17.528,16.417L17.528,12.583ZM17.265,12.584C17.008,12.578 16.761,12.481 16.569,12.309L14.018,15.171C14.89,15.948 16.011,16.39 17.179,16.416L17.265,12.584ZM16.569,12.309C16.377,12.138 16.252,11.904 16.217,11.649L12.419,12.173C12.579,13.331 13.146,14.393 14.018,15.171L16.569,12.309ZM16.209,11.598L16.088,10.863L12.306,11.489L12.427,12.224L16.209,11.598ZM16.087,10.859C16.071,10.767 16.052,10.647 16.032,10.55C16.022,10.502 16.004,10.414 15.974,10.315C15.961,10.27 15.881,9.981 15.665,9.688L12.579,11.962C12.459,11.799 12.393,11.654 12.363,11.584C12.33,11.505 12.31,11.442 12.3,11.408C12.289,11.372 12.283,11.345 12.28,11.332C12.278,11.325 12.277,11.32 12.276,11.317C12.275,11.313 12.275,11.312 12.275,11.311C12.275,11.311 12.275,11.312 12.276,11.315C12.276,11.317 12.277,11.32 12.277,11.325C12.279,11.334 12.281,11.346 12.284,11.363C12.29,11.397 12.297,11.438 12.306,11.493L16.087,10.859ZM15.674,9.701C15.482,9.436 15.231,9.221 14.94,9.072L13.197,12.486C12.948,12.359 12.733,12.175 12.569,11.949L15.674,9.701ZM14.94,9.072C14.649,8.924 14.327,8.846 14,8.846L14,12.68C13.721,12.68 13.445,12.613 13.197,12.486L14.94,9.072ZM14,8.846C13.673,8.846 13.351,8.924 13.06,9.072L14.803,12.486C14.555,12.613 14.279,12.68 14,12.68L14,8.846ZM13.06,9.072C12.769,9.221 12.518,9.436 12.326,9.701L15.431,11.949C15.267,12.175 15.052,12.359 14.803,12.486L13.06,9.072ZM12.336,9.688C12.121,9.979 12.041,10.264 12.027,10.312C11.997,10.412 11.978,10.501 11.968,10.55C11.948,10.649 11.928,10.77 11.913,10.865L15.694,11.49C15.704,11.435 15.71,11.394 15.716,11.361C15.719,11.344 15.721,11.332 15.723,11.323C15.725,11.314 15.725,11.311 15.725,11.311C15.725,11.311 15.724,11.319 15.72,11.333C15.717,11.347 15.71,11.374 15.699,11.411C15.689,11.445 15.669,11.509 15.635,11.588C15.605,11.659 15.54,11.802 15.422,11.962L12.336,9.688ZM11.913,10.864L11.791,11.598L15.573,12.224L15.694,11.491L11.913,10.864ZM11.783,11.649C11.748,11.904 11.623,12.138 11.431,12.309L13.982,15.171C14.854,14.393 15.421,13.331 15.581,12.173L11.783,11.649ZM11.431,12.309C11.239,12.481 10.992,12.578 10.735,12.584L10.821,16.416C11.989,16.39 13.11,15.948 13.982,15.171L11.431,12.309ZM10.778,12.583L10.472,12.583L10.472,16.417L10.778,16.417L10.778,12.583ZM10.517,12.584C10.269,12.578 10.031,12.487 9.842,12.327L7.363,15.251C8.221,15.979 9.303,16.39 10.427,16.416L10.517,12.584ZM9.842,12.327C9.653,12.167 9.524,11.947 9.478,11.703L5.712,12.419C5.922,13.524 6.505,14.524 7.363,15.251L9.842,12.327ZM9.468,11.653C9.467,11.649 9.466,11.645 9.466,11.641L5.671,12.181C5.684,12.278 5.702,12.374 5.722,12.469L9.468,11.653ZM9.459,11.598L9.338,10.863L5.556,11.489L5.677,12.224L9.459,11.598ZM9.337,10.859C9.321,10.767 9.302,10.647 9.282,10.55C9.272,10.502 9.254,10.414 9.224,10.315C9.211,10.27 9.131,9.981 8.915,9.688L5.829,11.962C5.709,11.799 5.643,11.654 5.613,11.584C5.58,11.505 5.56,11.442 5.55,11.408C5.539,11.372 5.533,11.345 5.53,11.332C5.528,11.325 5.527,11.32 5.526,11.317C5.525,11.313 5.525,11.312 5.525,11.311C5.525,11.311 5.525,11.312 5.526,11.315C5.526,11.317 5.527,11.32 5.527,11.325C5.529,11.334 5.531,11.346 5.534,11.363C5.54,11.397 5.547,11.438 5.556,11.493L9.337,10.859ZM8.924,9.701C8.732,9.436 8.481,9.221 8.19,9.072L6.447,12.486C6.198,12.359 5.983,12.175 5.819,11.949L8.924,9.701ZM8.19,9.072C7.899,8.924 7.577,8.846 7.25,8.846L7.25,12.68C6.971,12.68 6.695,12.613 6.447,12.486L8.19,9.072ZM7.25,8.846C6.923,8.846 6.601,8.924 6.31,9.072L8.053,12.486C7.805,12.613 7.529,12.68 7.25,12.68L7.25,8.846ZM6.31,9.072C6.019,9.221 5.768,9.436 5.576,9.701L8.681,11.949C8.517,12.175 8.302,12.359 8.053,12.486L6.31,9.072ZM5.586,9.688C5.371,9.979 5.291,10.264 5.277,10.312C5.247,10.412 5.228,10.501 5.218,10.55C5.198,10.649 5.178,10.77 5.163,10.865L8.944,11.49C8.954,11.435 8.96,11.394 8.966,11.361C8.969,11.344 8.971,11.332 8.973,11.323C8.975,11.314 8.975,11.311 8.975,11.311C8.975,11.311 8.974,11.319 8.97,11.333C8.967,11.347 8.96,11.374 8.949,11.411C8.939,11.445 8.919,11.509 8.885,11.588C8.855,11.659 8.79,11.802 8.672,11.962L5.586,9.688ZM5.163,10.865C5.019,11.733 4.986,11.849 4.96,11.913L8.497,13.391C8.737,12.816 8.833,12.164 8.945,11.49L5.163,10.865ZM4.958,11.916C4.892,12.075 4.789,12.216 4.658,12.327L7.137,15.251C7.732,14.747 8.199,14.108 8.498,13.388L4.958,11.916ZM4.658,12.327C4.527,12.438 4.372,12.516 4.204,12.556L5.076,16.288C5.836,16.111 6.542,15.755 7.137,15.251L4.658,12.327ZM4.207,12.555C4.138,12.571 4.01,12.583 3.104,12.583L3.104,16.417C3.8,16.417 4.47,16.429 5.073,16.289L4.207,12.555ZM3.104,12.583C2.777,12.583 2.605,12.583 2.483,12.577C2.365,12.571 2.429,12.563 2.555,12.605L1.364,16.248C1.715,16.363 2.045,16.393 2.289,16.405C2.53,16.417 2.817,16.417 3.104,16.417L3.104,12.583ZM2.549,12.603C2.628,12.628 2.698,12.677 2.749,12.743L-0.271,15.103C0.149,15.641 0.721,16.04 1.37,16.25L2.549,12.603ZM2.749,12.743C2.801,12.808 2.831,12.888 2.837,12.971L-0.988,13.233C-0.941,13.914 -0.691,14.565 -0.271,15.103L2.749,12.743ZM2.837,12.981C2.845,13.102 2.825,13.156 2.846,13.046C2.869,12.931 2.909,12.768 2.986,12.458L-0.732,11.529C-0.8,11.801 -0.869,12.074 -0.915,12.308C-0.962,12.548 -1.011,12.865 -0.988,13.223L2.837,12.981ZM2.987,12.458L4.791,5.237L1.072,4.308L-0.732,11.529L2.987,12.458Z" fill="#B4B3AF"/>
</svg>
