<svg width="92" height="92" viewBox="0 0 92 92" fill="none" xmlns="http://www.w3.org/2000/svg" xmlns:xlink="http://www.w3.org/1999/xlink">
<path d="M28.75,21.563C26.368,21.563 24.438,23.493 24.438,25.875C24.438,28.257 26.368,30.188 28.75,30.188L28.75,21.563ZM80.5,30.188C82.882,30.188 84.812,28.257 84.812,25.875C84.812,23.493 82.882,21.563 80.5,21.563L80.5,30.188ZM28.75,41.688C26.368,41.688 24.438,43.618 24.438,46C24.438,48.382 26.368,50.313 28.75,50.313L28.75,41.688ZM80.5,50.313C82.882,50.313 84.812,48.382 84.812,46C84.812,43.618 82.882,41.688 80.5,41.688L80.5,50.313ZM28.75,61.813C26.368,61.813 24.438,63.743 24.438,66.125C24.438,68.507 26.368,70.437 28.75,70.437L28.75,61.813ZM80.5,70.437C82.882,70.437 84.812,68.507 84.812,66.125C84.812,63.743 82.882,61.813 80.5,61.813L80.5,70.437ZM28.75,30.188L80.5,30.188L80.5,21.563L28.75,21.563L28.75,30.188ZM28.75,50.313L80.5,50.313L80.5,41.688L28.75,41.688L28.75,50.313ZM28.75,70.437L80.5,70.437L80.5,61.813L28.75,61.813L28.75,70.437Z" fill="#B4B3AF"/>
<path d="M14.375,25.875L14.375,31.625C17.551,31.625 20.125,29.051 20.125,25.875L14.375,25.875ZM14.375,25.875L8.625,25.875C8.625,29.051 11.199,31.625 14.375,31.625L14.375,25.875ZM14.375,25.875L14.375,20.125C11.199,20.125 8.625,22.699 8.625,25.875L14.375,25.875ZM14.375,25.875L20.125,25.875C20.125,22.699 17.551,20.125 14.375,20.125L14.375,25.875Z" fill="#B4B3AF"/>
<path d="M14.375,46L14.375,51.75C17.551,51.75 20.125,49.176 20.125,46L14.375,46ZM14.375,46L8.625,46C8.625,49.176 11.199,51.75 14.375,51.75L14.375,46ZM14.375,46L14.375,40.25C11.199,40.25 8.625,42.824 8.625,46L14.375,46ZM14.375,46L20.125,46C20.125,42.824 17.551,40.25 14.375,40.25L14.375,46Z" fill="#B4B3AF"/>
<path d="M14.375,66.125L14.375,71.875C17.551,71.875 20.125,69.301 20.125,66.125L14.375,66.125ZM14.375,66.125L8.625,66.125C8.625,69.301 11.199,71.875 14.375,71.875L14.375,66.125ZM14.375,66.125L14.375,60.375C11.199,60.375 8.625,62.949 8.625,66.125L14.375,66.125ZM14.375,66.125L20.125,66.125C20.125,62.949 17.551,60.375 14.375,60.375L14.375,66.125Z" fill="#B4B3AF"/>
</svg>
