<svg width="44" height="40" viewBox="0 0 44 40" fill="none" xmlns="http://www.w3.org/2000/svg" xmlns:xlink="http://www.w3.org/1999/xlink">
<path d="M37.6,39.2L29.2,30.9C28.033,31.267 26.859,31.542 25.676,31.726C24.493,31.91 23.268,32.001 22,32C16.967,32 12.483,30.609 8.55,27.826C4.617,25.043 1.767,21.435 0,17C0.7,15.233 1.583,13.591 2.65,12.074C3.717,10.557 4.933,9.199 6.3,8L0.8,2.4L3.6,-0.4L40.4,36.4L37.6,39.2ZM22,26C22.367,26 22.709,25.983 23.026,25.95C23.343,25.917 23.685,25.85 24.05,25.75L13.25,14.95C13.15,15.317 13.083,15.659 13.05,15.976C13.017,16.293 13,16.635 13,17C13,19.5 13.875,21.625 15.626,23.376C17.377,25.127 19.501,26.001 22,26ZM36.6,26.9L30.25,20.6C30.483,20.033 30.667,19.459 30.8,18.876C30.933,18.293 31,17.668 31,17C31,14.5 30.125,12.375 28.376,10.626C26.627,8.877 24.501,8.001 22,8C21.333,8 20.709,8.067 20.126,8.2C19.543,8.333 18.968,8.533 18.4,8.8L13.3,3.7C14.667,3.133 16.067,2.709 17.5,2.426C18.933,2.143 20.433,2.001 22,2C27.033,2 31.517,3.392 35.45,6.176C39.383,8.96 42.233,12.568 44,17C43.233,18.967 42.225,20.792 40.974,22.476C39.723,24.16 38.265,25.635 36.6,26.9ZM27.35,17.7L21.35,11.7C22.283,11.533 23.142,11.609 23.926,11.926C24.71,12.243 25.385,12.701 25.95,13.3C26.517,13.9 26.925,14.592 27.176,15.376C27.427,16.16 27.485,16.935 27.35,17.7Z" fill="#FFFFFF"/>
</svg>
