<svg width="62" height="52" viewBox="0 0 62 52" fill="none" xmlns="http://www.w3.org/2000/svg" xmlns:xlink="http://www.w3.org/1999/xlink">
<path d="M45.307,16.545C45.307,15.905 45.071,15.351 44.599,14.884C44.127,14.416 43.568,14.182 42.922,14.182L38.154,14.182L38.154,9.455C38.154,8.814 37.918,8.26 37.446,7.793C36.974,7.325 36.415,7.091 35.769,7.091C35.123,7.091 34.565,7.325 34.093,7.793C33.621,8.26 33.385,8.814 33.385,9.455L33.385,14.182L28.616,14.182C27.97,14.182 27.412,14.416 26.94,14.884C26.468,15.351 26.232,15.905 26.232,16.545C26.232,17.186 26.468,17.74 26.94,18.207C27.412,18.675 27.97,18.909 28.616,18.909L33.385,18.909L33.385,23.636C33.385,24.277 33.621,24.83 34.093,25.298C34.565,25.766 35.123,26 35.769,26C36.415,26 36.974,25.766 37.446,25.298C37.918,24.83 38.154,24.277 38.154,23.636L38.154,18.909L42.922,18.909C43.568,18.909 44.127,18.675 44.599,18.207C45.071,17.74 45.307,17.186 45.307,16.545ZM23.848,47.273C23.848,48.578 23.382,49.692 22.45,50.615C21.519,51.538 20.395,52 19.079,52C17.762,52 16.639,51.538 15.707,50.615C14.776,49.692 14.31,48.578 14.31,47.273C14.31,45.968 14.776,44.854 15.707,43.93C16.639,43.007 17.762,42.545 19.079,42.545C20.395,42.545 21.519,43.007 22.45,43.93C23.382,44.854 23.848,45.968 23.848,47.273ZM57.228,47.273C57.228,48.578 56.763,49.692 55.831,50.615C54.9,51.538 53.776,52 52.46,52C51.143,52 50.019,51.538 49.088,50.615C48.157,49.692 47.691,48.578 47.691,47.273C47.691,45.968 48.157,44.854 49.088,43.93C50.019,43.007 51.143,42.545 52.46,42.545C53.776,42.545 54.9,43.007 55.831,43.93C56.763,44.854 57.228,45.968 57.228,47.273ZM61.997,7.091L61.997,26C61.997,26.591 61.798,27.114 61.401,27.57C61.003,28.025 60.494,28.29 59.873,28.364L20.979,32.869C21.004,33.042 21.06,33.306 21.147,33.663C21.233,34.02 21.308,34.347 21.37,34.642C21.432,34.938 21.463,35.208 21.463,35.455C21.463,35.848 21.165,36.636 20.569,37.818L54.844,37.818C55.49,37.818 56.049,38.052 56.52,38.52C56.992,38.988 57.228,39.542 57.228,40.182C57.228,40.822 56.992,41.376 56.52,41.844C56.049,42.312 55.49,42.545 54.844,42.545L16.695,42.545C16.049,42.545 15.49,42.312 15.018,41.844C14.546,41.376 14.31,40.822 14.31,40.182C14.31,39.837 14.447,39.351 14.72,38.723C14.993,38.095 15.36,37.363 15.819,36.526C16.278,35.688 16.533,35.221 16.583,35.122L9.989,4.727L2.388,4.727C1.743,4.727 1.184,4.493 0.712,4.026C0.24,3.558 0.004,3.004 0.004,2.364C0.004,1.723 0.24,1.17 0.712,0.702C1.184,0.234 1.743,0 2.388,0L11.926,0C12.323,0 12.677,0.08 12.988,0.24C13.298,0.4 13.546,0.591 13.733,0.813C13.919,1.034 14.08,1.336 14.217,1.717C14.354,2.099 14.447,2.425 14.496,2.696C14.546,2.967 14.614,3.33 14.701,3.786C14.788,4.241 14.844,4.555 14.869,4.727L59.613,4.727C60.258,4.727 60.817,4.961 61.289,5.429C61.761,5.897 61.997,6.451 61.997,7.091Z" fill="#3EC444"/>
</svg>
