<svg width="60" height="60" viewBox="0 0 60 60" fill="none" xmlns="http://www.w3.org/2000/svg" xmlns:xlink="http://www.w3.org/1999/xlink">
<path d="M53.7,58.25L33.225,37.775C31.6,39.075 29.731,40.104 27.619,40.862C25.506,41.621 23.258,42 20.875,42C14.971,42 9.974,39.955 5.886,35.864C1.798,31.773 -0.248,26.777 -0.25,20.875C-0.25,14.971 1.795,9.974 5.886,5.886C9.977,1.798 14.973,-0.248 20.875,-0.25C26.779,-0.25 31.777,1.795 35.867,5.886C39.958,9.977 42.002,14.973 42,20.875C42,23.258 41.621,25.506 40.862,27.619C40.104,29.731 39.075,31.6 37.775,33.225L58.25,53.7L53.7,58.25ZM20.875,35.5C24.938,35.5 28.391,34.079 31.236,31.236C34.081,28.393 35.502,24.94 35.5,20.875C35.5,16.813 34.079,13.36 31.236,10.517C28.393,7.675 24.94,6.252 20.875,6.25C16.813,6.25 13.36,7.672 10.517,10.517C7.675,13.362 6.252,16.815 6.25,20.875C6.25,24.938 7.672,28.391 10.517,31.236C13.362,34.081 16.815,35.502 20.875,35.5Z" fill="#8E8B8B"/>
</svg>
