<svg width="66" height="54" viewBox="0 0 66 54" fill="none" xmlns="http://www.w3.org/2000/svg" xmlns:xlink="http://www.w3.org/1999/xlink">
<path d="M65.375,17.703C65.375,36.844 35.373,52.337 34.096,52.977C33.759,53.148 33.382,53.238 33,53.238C32.618,53.238 32.241,53.148 31.904,52.977C30.627,52.337 0.625,36.844 0.625,17.703C0.63,13.208 2.52,8.899 5.88,5.721C9.24,2.543 13.795,0.755 18.547,0.75C24.516,0.75 29.742,3.178 33,7.282C36.258,3.178 41.484,0.75 47.453,0.75C52.205,0.755 56.76,2.543 60.12,5.721C63.48,8.899 65.37,13.208 65.375,17.703Z" fill="#B4B3AF"/>
</svg>
