<svg width="44" height="44" viewBox="0 0 44 44" fill="none" xmlns="http://www.w3.org/2000/svg" xmlns:xlink="http://www.w3.org/1999/xlink">
<path d="M2.917,17.472C7.876,28.272 16.689,36.832 27.629,41.476L29.385,42.259C31.331,43.125 33.519,43.277 35.566,42.688C37.612,42.098 39.385,40.806 40.571,39.037L42.868,35.617C43.227,35.081 43.373,34.429 43.276,33.791C43.179,33.152 42.846,32.574 42.343,32.168L34.562,25.891C34.291,25.672 33.979,25.511 33.644,25.416C33.309,25.321 32.959,25.295 32.613,25.339C32.268,25.384 31.935,25.497 31.635,25.673C31.335,25.849 31.073,26.084 30.866,26.364L28.458,29.611C22.278,26.558 17.275,21.555 14.224,15.374L17.469,12.966C17.748,12.759 17.983,12.497 18.159,12.197C18.335,11.897 18.449,11.564 18.493,11.219C18.537,10.873 18.511,10.523 18.416,10.188C18.321,9.853 18.16,9.541 17.941,9.27L11.664,1.489C11.258,0.986 10.68,0.653 10.041,0.556C9.403,0.459 8.751,0.605 8.215,0.964L4.771,3.274C2.993,4.467 1.695,6.252 1.11,8.313C0.525,10.373 0.69,12.574 1.576,14.524L2.917,17.472Z" fill="#FFFFFF"/>
</svg>
