<svg width="12" height="46" viewBox="0 0 12 46" fill="none" xmlns="http://www.w3.org/2000/svg" xmlns:xlink="http://www.w3.org/1999/xlink">
<path d="M6,11.5C7.187,11.5 8.347,11.148 9.333,10.489C10.32,9.83 11.089,8.892 11.543,7.796C11.997,6.7 12.116,5.493 11.885,4.329C11.653,3.166 11.082,2.096 10.243,1.257C9.404,0.418 8.334,-0.153 7.171,-0.385C6.007,-0.616 4.8,-0.497 3.704,-0.043C2.608,0.411 1.67,1.18 1.011,2.167C0.352,3.153 0,4.313 0,5.5C0.002,7.091 0.635,8.616 1.759,9.741C2.884,10.865 4.409,11.498 6,11.5ZM6,2.5C6.593,2.5 7.173,2.676 7.667,3.006C8.16,3.335 8.545,3.804 8.772,4.352C8.999,4.9 9.058,5.503 8.942,6.085C8.827,6.667 8.541,7.202 8.121,7.621C7.702,8.041 7.167,8.327 6.585,8.442C6.003,8.558 5.4,8.499 4.852,8.272C4.304,8.045 3.835,7.66 3.506,7.167C3.176,6.673 3,6.093 3,5.5C3.001,4.705 3.317,3.942 3.88,3.38C4.442,2.817 5.205,2.501 6,2.5ZM6,32.5C4.813,32.5 3.653,32.852 2.667,33.511C1.68,34.17 0.911,35.108 0.457,36.204C0.003,37.3 -0.116,38.507 0.115,39.671C0.347,40.834 0.918,41.904 1.757,42.743C2.596,43.582 3.666,44.153 4.829,44.385C5.993,44.616 7.2,44.497 8.296,44.043C9.392,43.589 10.33,42.82 10.989,41.833C11.648,40.847 12,39.687 12,38.5C11.998,36.909 11.365,35.384 10.241,34.259C9.116,33.135 7.591,32.502 6,32.5ZM6,41.5C5.407,41.5 4.827,41.324 4.333,40.994C3.84,40.665 3.455,40.196 3.228,39.648C3.001,39.1 2.942,38.497 3.058,37.915C3.173,37.333 3.459,36.798 3.879,36.379C4.298,35.959 4.833,35.673 5.415,35.558C5.997,35.442 6.6,35.501 7.148,35.728C7.696,35.955 8.165,36.34 8.494,36.833C8.824,37.327 9,37.907 9,38.5C8.999,39.295 8.683,40.058 8.12,40.62C7.558,41.183 6.795,41.499 6,41.5ZM6,16C4.813,16 3.653,16.352 2.667,17.011C1.68,17.67 0.911,18.608 0.457,19.704C0.003,20.8 -0.116,22.007 0.115,23.171C0.347,24.334 0.918,25.404 1.757,26.243C2.596,27.082 3.666,27.653 4.829,27.885C5.993,28.116 7.2,27.997 8.296,27.543C9.392,27.089 10.33,26.32 10.989,25.333C11.648,24.347 12,23.187 12,22C11.998,20.409 11.365,18.884 10.241,17.759C9.116,16.635 7.591,16.002 6,16ZM6,25C5.407,25 4.827,24.824 4.333,24.494C3.84,24.165 3.455,23.696 3.228,23.148C3.001,22.6 2.942,21.997 3.058,21.415C3.173,20.833 3.459,20.298 3.879,19.879C4.298,19.459 4.833,19.173 5.415,19.058C5.997,18.942 6.6,19.001 7.148,19.228C7.696,19.455 8.165,19.84 8.494,20.333C8.824,20.827 9,21.407 9,22C8.999,22.795 8.683,23.558 8.12,24.12C7.558,24.683 6.795,24.999 6,25Z" fill="#000000"/>
</svg>
