<svg width="34" height="56" viewBox="0 0 34 56" fill="none" xmlns="http://www.w3.org/2000/svg" xmlns:xlink="http://www.w3.org/1999/xlink">
<path d="M0.55,1.55C0.087,2.013 -0.281,2.562 -0.532,3.167C-0.783,3.772 -0.912,4.42 -0.912,5.075C-0.912,5.73 -0.783,6.378 -0.532,6.983C-0.281,7.588 0.087,8.137 0.55,8.6L19.95,28L0.55,47.4C-0.385,48.335 -0.91,49.603 -0.91,50.925C-0.91,52.247 -0.385,53.515 0.55,54.45C1.485,55.385 2.753,55.91 4.075,55.91C5.397,55.91 6.665,55.385 7.6,54.45L30.55,31.5C31.014,31.037 31.381,30.488 31.632,29.883C31.883,29.278 32.012,28.63 32.012,27.975C32.012,27.32 31.883,26.672 31.632,26.067C31.381,25.462 31.014,24.913 30.55,24.45L7.6,1.5C5.7,-0.4 2.5,-0.4 0.55,1.55Z" fill="#3EC444"/>
</svg>
