<svg width="110" height="82" viewBox="0 0 110 82" fill="none" xmlns="http://www.w3.org/2000/svg" xmlns:xlink="http://www.w3.org/1999/xlink">
<path d="M85,41C85,43.761 87.239,46 90,46C92.761,46 95,43.761 95,41L85,41ZM95,40.94C95,38.179 92.761,35.94 90,35.94C87.239,35.94 85,38.179 85,40.94L95,40.94ZM95,41L95,40.94L85,40.94L85,41L95,41ZM15,81L95,81L95,71L15,71L15,81ZM95,81C103.284,81 110,74.284 110,66L100,66C100,68.762 97.762,71 95,71L95,81ZM110,66L110,16L100,16L100,66L110,66ZM110,16C110,7.716 103.284,1 95,1L95,11C97.762,11 100,13.239 100,16L110,16ZM95,1L15,1L15,11L95,11L95,1ZM15,1C6.716,1 0,7.716 0,16L10,16C10,13.239 12.239,11 15,11L15,1ZM0,16L0,66L10,66L10,16L0,16ZM0,66C0,74.284 6.716,81 15,81L15,71C12.239,71 10,68.762 10,66L0,66Z" fill="#000000"/>
</svg>
