<svg width="32" height="30" viewBox="0 0 32 30" fill="none" xmlns="http://www.w3.org/2000/svg" xmlns:xlink="http://www.w3.org/1999/xlink">
<path d="M9.678,8.398L0.639,9.709L0.479,9.741C0.237,9.806 0.016,9.933 -0.161,10.111C-0.338,10.288 -0.465,10.51 -0.528,10.752C-0.591,10.995 -0.589,11.25 -0.522,11.492C-0.454,11.733 -0.324,11.952 -0.144,12.127L6.404,18.501L4.86,27.504L4.841,27.659C4.826,27.91 4.878,28.16 4.992,28.384C5.106,28.608 5.277,28.798 5.488,28.934C5.699,29.07 5.942,29.147 6.193,29.158C6.444,29.169 6.693,29.114 6.915,28.997L14.999,24.747L23.064,28.997L23.205,29.062C23.439,29.154 23.693,29.182 23.942,29.144C24.19,29.105 24.424,29.001 24.619,28.843C24.814,28.684 24.963,28.476 25.051,28.241C25.139,28.006 25.163,27.751 25.121,27.504L23.575,18.501L30.126,12.126L30.236,12.005C30.394,11.811 30.498,11.578 30.536,11.331C30.575,11.083 30.547,10.83 30.456,10.597C30.365,10.363 30.213,10.158 30.017,10.003C29.821,9.847 29.587,9.746 29.34,9.71L20.301,8.398L16.261,0.21C16.144,-0.027 15.963,-0.227 15.738,-0.367C15.514,-0.506 15.255,-0.58 14.99,-0.58C14.726,-0.58 14.466,-0.506 14.242,-0.367C14.017,-0.227 13.836,-0.027 13.719,0.21L9.678,8.398Z" fill="#FFC700"/>
</svg>
