<svg width="122" height="96" viewBox="0 0 122 96" fill="none" xmlns="http://www.w3.org/2000/svg" xmlns:xlink="http://www.w3.org/1999/xlink">
<path d="M110.324,46.603C110.089,46.415 109.844,46.227 109.589,46.037C108.741,33.959 103.481,22.723 94.685,14.266C85.527,5.46 73.502,0.611 60.826,0.611C48.151,0.611 36.126,5.46 26.968,14.266C18.172,22.723 12.912,33.959 12.064,46.037C11.808,46.228 11.564,46.416 11.329,46.603C4.556,51.996 0.826,59.217 0.826,66.936C0.826,74.655 4.556,81.875 11.329,87.268C17.298,92.022 24.91,94.759 32.227,94.776C33.658,94.776 35.003,94.22 36.015,93.209C37.032,92.196 37.591,90.848 37.591,89.412L37.591,44.459C37.591,43.024 37.032,41.675 36.015,40.661C35.002,39.651 33.655,39.095 32.214,39.095C31.652,39.096 31.084,39.114 30.511,39.149C34.883,26.377 47.051,17.468 60.826,17.468C74.602,17.468 86.77,26.377 91.141,39.149C90.566,39.114 89.993,39.096 89.426,39.095C87.995,39.095 86.65,39.651 85.637,40.662C84.622,41.675 84.062,43.024 84.062,44.459L84.062,89.413C84.062,90.848 84.622,92.197 85.638,93.211C86.65,94.221 87.996,94.777 89.426,94.777L89.439,94.777C96.742,94.759 104.355,92.022 110.324,87.27C117.097,81.875 120.826,74.654 120.826,66.936C120.826,59.217 117.097,51.996 110.324,46.603Z" fill="#000000"/>
</svg>
