<svg width="54" height="78" viewBox="0 0 54 78" fill="none" xmlns="http://www.w3.org/2000/svg" xmlns:xlink="http://www.w3.org/1999/xlink">
<path d="M27,-0.333C30.708,-0.333 34.334,0.791 37.417,2.897C40.5,5.003 42.904,7.996 44.323,11.499C45.742,15.001 46.113,18.855 45.39,22.572C44.666,26.29 42.88,29.706 40.258,32.386C37.636,35.067 34.295,36.892 30.658,37.632C27.021,38.371 23.251,37.992 19.825,36.541C16.399,35.09 13.47,32.634 11.41,29.482C9.35,26.33 8.25,22.624 8.25,18.833L8.269,18.002C8.478,13.067 10.544,8.406 14.033,4.99C17.523,1.574 22.168,-0.333 27,-0.333ZM34.5,45.667C39.473,45.667 44.242,47.686 47.758,51.28C51.275,54.875 53.25,59.75 53.25,64.833L53.25,68.667C53.25,70.7 52.46,72.65 51.053,74.088C49.647,75.526 47.739,76.333 45.75,76.333L8.25,76.333C6.261,76.333 4.353,75.526 2.947,74.088C1.54,72.65 0.75,70.7 0.75,68.667L0.75,64.833C0.75,59.75 2.725,54.875 6.242,51.28C9.758,47.686 14.527,45.667 19.5,45.667L34.5,45.667Z" fill="#3EC444"/>
</svg>
