<svg width="72" height="66" viewBox="0 0 72 66" fill="none" xmlns="http://www.w3.org/2000/svg" xmlns:xlink="http://www.w3.org/1999/xlink">
<path d="M20.88,39.92L20.88,17.6L7.2,17.6C3.24,17.6 0,20.84 0,24.8L0,46.4C0,50.36 3.24,53.6 7.2,53.6L10.8,53.6L10.8,64.4L21.6,53.6L39.6,53.6C43.56,53.6 46.8,50.36 46.8,46.4L46.8,39.848C46.563,39.899 46.322,39.924 46.08,39.924L20.88,39.924L20.88,39.92ZM64.8,-0.4L32.4,-0.4C28.44,-0.4 25.2,2.84 25.2,6.8L25.2,35.6L50.4,35.6L61.2,46.4L61.2,35.6L64.8,35.6C68.76,35.6 72,32.364 72,28.4L72,6.8C72,2.84 68.76,-0.4 64.8,-0.4Z" fill="#A2B2B3"/>
</svg>
