<svg width="72" height="76" viewBox="0 0 72 76" fill="none" xmlns="http://www.w3.org/2000/svg" xmlns:xlink="http://www.w3.org/1999/xlink">
<path d="M56.917,59.5C52.939,59.5 49.75,62.838 49.75,67C49.75,68.989 50.505,70.897 51.849,72.303C53.193,73.71 55.016,74.5 56.917,74.5C58.817,74.5 60.64,73.71 61.984,72.303C63.328,70.897 64.083,68.989 64.083,67C64.083,65.011 63.328,63.103 61.984,61.697C60.64,60.29 58.817,59.5 56.917,59.5ZM-0.417,-0.5L-0.417,7L6.75,7L19.65,35.463L14.777,44.65C14.239,45.7 13.917,46.938 13.917,48.25C13.917,50.239 14.672,52.147 16.016,53.553C17.36,54.96 19.183,55.75 21.083,55.75L64.083,55.75L64.083,48.25L22.588,48.25C22.351,48.25 22.123,48.151 21.955,47.975C21.787,47.8 21.692,47.561 21.692,47.312C21.692,47.125 21.728,46.975 21.8,46.862L25.025,40.75L51.721,40.75C54.408,40.75 56.773,39.175 57.992,36.888L70.82,12.625C71.071,12.025 71.25,11.388 71.25,10.75C71.25,9.755 70.872,8.802 70.2,8.098C69.528,7.395 68.617,7 67.667,7L14.669,7L11.301,-0.5M21.083,59.5C17.106,59.5 13.917,62.838 13.917,67C13.917,68.989 14.672,70.897 16.016,72.303C17.36,73.71 19.183,74.5 21.083,74.5C22.984,74.5 24.807,73.71 26.151,72.303C27.495,70.897 28.25,68.989 28.25,67C28.25,65.011 27.495,63.103 26.151,61.697C24.807,60.29 22.984,59.5 21.083,59.5Z" fill="#000000" fill-opacity="0.28"/>
</svg>
