<svg width="70" height="70" viewBox="0 0 70 70" fill="none" xmlns="http://www.w3.org/2000/svg" xmlns:xlink="http://www.w3.org/1999/xlink">
<path d="M36.517,0.56C36.094,0.199 35.556,0 35,0C34.444,0 33.906,0.199 33.483,0.56L0,29.26L0,63C0,64.857 0.737,66.637 2.05,67.95C3.363,69.263 5.143,70 7,70L25.667,70C26.286,70 26.879,69.754 27.317,69.317C27.754,68.879 28,68.286 28,67.667L28,53.667C28,51.81 28.737,50.03 30.05,48.717C31.363,47.404 33.143,46.667 35,46.667C36.857,46.667 38.637,47.404 39.95,48.717C41.263,50.03 42,51.81 42,53.667L42,67.667C42,68.286 42.246,68.879 42.683,69.317C43.121,69.754 43.714,70 44.333,70L63,70C64.857,70 66.637,69.263 67.95,67.95C69.262,66.637 70,64.857 70,63L70,29.26L36.517,0.56Z" fill="#3EC444"/>
</svg>
