<svg width="78" height="122" viewBox="0 0 78 122" fill="none" xmlns="http://www.w3.org/2000/svg" xmlns:xlink="http://www.w3.org/1999/xlink">
<path d="M11,1L65,1C71.628,1 77,6.655 77,13.632L77,108.368C77,115.344 71.628,121 65,121L11,121C4.373,121 -1,115.344 -1,108.368L-1,13.632C-1,6.655 4.373,1 11,1ZM17,13C13.686,13 11,15.686 11,19L11,103C11,106.314 13.686,109 17,109L59,109C62.314,109 65,106.314 65,103L65,19C65,15.686 62.314,13 59,13L53,13L53,22C53,23.657 51.657,25 50,25L26,25C24.343,25 23,23.657 23,22L23,13L17,13Z" clip-rule="evenodd" fill-rule="evenodd" fill="#000000"/>
</svg>
