<svg width="44" height="62" viewBox="0 0 44 62" fill="none" xmlns="http://www.w3.org/2000/svg" xmlns:xlink="http://www.w3.org/1999/xlink">
<path d="M21,29.458C18.955,29.458 16.995,28.646 15.549,27.201C14.104,25.755 13.292,23.794 13.292,21.75C13.292,19.706 14.104,17.745 15.549,16.299C16.995,14.854 18.955,14.042 21,14.042C23.044,14.042 25.005,14.854 26.451,16.299C27.896,17.745 28.708,19.706 28.708,21.75C28.708,22.762 28.509,23.765 28.122,24.7C27.734,25.635 27.166,26.485 26.451,27.201C25.735,27.916 24.885,28.484 23.95,28.872C23.015,29.259 22.012,29.458 21,29.458ZM21,0.167C15.276,0.167 9.786,2.441 5.738,6.488C1.69,10.536 -0.583,16.026 -0.583,21.75C-0.583,37.937 21,61.833 21,61.833C21,61.833 42.583,37.937 42.583,21.75C42.583,16.026 40.309,10.536 36.262,6.488C32.214,2.441 26.724,0.167 21,0.167Z" fill="#3EC444"/>
</svg>
