<svg width="90" height="100" viewBox="0 0 90 100" fill="none" xmlns="http://www.w3.org/2000/svg" xmlns:xlink="http://www.w3.org/1999/xlink">
<path d="M19.826,74.694C19.826,71.932 17.588,69.694 14.826,69.694C12.065,69.694 9.826,71.932 9.826,74.694L19.826,74.694ZM59.826,99.694C62.588,99.694 64.826,97.455 64.826,94.694C64.826,91.932 62.588,89.694 59.826,89.694L59.826,99.694ZM49.826,74.694C49.826,71.932 47.588,69.694 44.826,69.694C42.065,69.694 39.826,71.932 39.826,74.694L49.826,74.694ZM9.826,24.694C9.826,27.455 12.065,29.694 14.826,29.694C17.588,29.694 19.826,27.455 19.826,24.694L9.826,24.694ZM59.826,9.694C62.588,9.694 64.826,7.455 64.826,4.694C64.826,1.932 62.588,-0.306 59.826,-0.306L59.826,9.694ZM39.826,24.694C39.826,27.455 42.065,29.694 44.826,29.694C47.588,29.694 49.826,27.455 49.826,24.694L39.826,24.694ZM59.378,-0.269C56.628,-0.022 54.599,2.409 54.847,5.159C55.094,7.909 57.524,9.938 60.274,9.691L59.378,-0.269ZM60.274,89.697C57.524,89.449 55.094,91.478 54.847,94.229C54.599,96.979 56.628,99.409 59.378,99.657L60.274,89.697ZM34.826,39.694C34.826,36.932 32.588,34.694 29.826,34.694C27.065,34.694 24.826,36.932 24.826,39.694L34.826,39.694ZM29.826,49.694L24.826,49.694C24.826,51.02 25.353,52.292 26.291,53.229L29.826,49.694ZM33.791,60.729C35.743,62.682 38.909,62.682 40.862,60.729C42.815,58.777 42.815,55.611 40.862,53.658L33.791,60.729ZM49.366,73.604L47.097,69.149L47.096,69.149L49.366,73.604ZM53.736,69.234L49.281,66.964L49.281,66.964L53.736,69.234ZM53.736,30.154L49.281,32.423L49.281,32.424L53.736,30.154ZM49.366,25.784L47.096,30.239L47.096,30.239L49.366,25.784ZM10.287,25.784L12.556,30.239L12.557,30.239L10.287,25.784ZM5.916,30.154L10.371,32.424L10.371,32.424L5.916,30.154ZM5.916,69.234L10.371,66.964L10.371,66.964L5.916,69.234ZM10.287,73.604L12.557,69.149L12.556,69.149L10.287,73.604ZM14.826,74.694C9.826,74.694 9.826,74.696 9.826,74.698C9.826,74.698 9.826,74.701 9.826,74.702C9.826,74.705 9.826,74.709 9.826,74.712C9.826,74.72 9.826,74.728 9.827,74.738C9.827,74.758 9.827,74.782 9.827,74.812C9.828,74.87 9.829,74.948 9.832,75.043C9.836,75.234 9.846,75.497 9.863,75.821C9.898,76.467 9.965,77.368 10.099,78.439C10.364,80.556 10.901,83.467 12.02,86.449C13.13,89.411 14.915,92.712 17.833,95.306C20.854,97.991 24.847,99.694 29.826,99.694L29.826,89.694C27.306,89.694 25.674,88.896 24.476,87.832C23.176,86.675 22.147,84.976 21.383,82.938C20.627,80.921 20.226,78.832 20.022,77.199C19.922,76.395 19.872,75.733 19.849,75.286C19.837,75.063 19.831,74.896 19.829,74.793C19.827,74.742 19.827,74.708 19.827,74.691C19.826,74.682 19.826,74.678 19.826,74.679C19.826,74.679 19.826,74.68 19.826,74.683C19.826,74.684 19.826,74.686 19.826,74.687C19.826,74.688 19.826,74.69 19.826,74.69C19.826,74.692 19.826,74.694 14.826,74.694ZM29.826,99.694L59.826,99.694L59.826,89.694L29.826,89.694L29.826,99.694ZM59.826,89.694C57.306,89.694 55.674,88.896 54.476,87.832C53.175,86.675 52.147,84.976 51.383,82.938C50.627,80.921 50.226,78.832 50.022,77.199C49.922,76.395 49.872,75.733 49.849,75.286C49.837,75.063 49.831,74.896 49.829,74.793C49.827,74.742 49.827,74.708 49.826,74.691C49.826,74.682 49.826,74.678 49.826,74.679C49.826,74.679 49.826,74.68 49.826,74.683C49.826,74.684 49.826,74.686 49.826,74.687C49.826,74.688 49.826,74.69 49.826,74.69C49.826,74.692 49.826,74.694 44.826,74.694C39.826,74.694 39.826,74.696 39.826,74.698C39.826,74.698 39.826,74.701 39.826,74.702C39.826,74.705 39.826,74.709 39.826,74.712C39.826,74.72 39.826,74.728 39.827,74.738C39.827,74.758 39.827,74.782 39.827,74.812C39.828,74.87 39.829,74.948 39.832,75.043C39.836,75.234 39.845,75.497 39.863,75.821C39.898,76.467 39.965,77.368 40.099,78.439C40.364,80.556 40.901,83.467 42.02,86.449C43.13,89.411 44.915,92.712 47.833,95.306C50.854,97.991 54.847,99.694 59.826,99.694L59.826,89.694ZM14.826,24.694C19.826,24.694 19.826,24.696 19.826,24.697C19.826,24.698 19.826,24.699 19.826,24.7C19.826,24.702 19.826,24.704 19.826,24.705C19.826,24.707 19.826,24.709 19.826,24.709C19.826,24.71 19.826,24.705 19.827,24.697C19.827,24.68 19.827,24.645 19.829,24.594C19.831,24.492 19.837,24.325 19.849,24.102C19.872,23.655 19.922,22.993 20.022,22.189C20.226,20.556 20.627,18.467 21.383,16.449C22.147,14.411 23.176,12.712 24.476,11.556C25.674,10.491 27.306,9.694 29.826,9.694L29.826,-0.306C24.847,-0.306 20.854,1.396 17.833,4.082C14.915,6.676 13.13,9.976 12.02,12.938C10.901,15.921 10.364,18.832 10.099,20.949C9.965,22.02 9.898,22.92 9.863,23.567C9.846,23.891 9.836,24.154 9.832,24.344C9.829,24.44 9.828,24.517 9.827,24.576C9.827,24.605 9.827,24.63 9.827,24.65C9.826,24.659 9.826,24.668 9.826,24.675C9.826,24.679 9.826,24.683 9.826,24.686C9.826,24.687 9.826,24.689 9.826,24.69C9.826,24.692 9.826,24.694 14.826,24.694ZM29.826,9.694L59.826,9.694L59.826,-0.306L29.826,-0.306L29.826,9.694ZM59.826,-0.306C54.847,-0.306 50.854,1.396 47.833,4.082C44.915,6.676 43.13,9.976 42.02,12.938C40.901,15.921 40.364,18.832 40.099,20.949C39.965,22.02 39.898,22.92 39.863,23.567C39.845,23.891 39.836,24.154 39.832,24.344C39.829,24.44 39.828,24.517 39.827,24.576C39.827,24.605 39.827,24.63 39.827,24.65C39.826,24.659 39.826,24.668 39.826,24.675C39.826,24.679 39.826,24.683 39.826,24.686C39.826,24.687 39.826,24.689 39.826,24.69C39.826,24.692 39.826,24.694 44.826,24.694C49.826,24.694 49.826,24.696 49.826,24.697C49.826,24.698 49.826,24.699 49.826,24.7C49.826,24.702 49.826,24.704 49.826,24.705C49.826,24.707 49.826,24.709 49.826,24.709C49.826,24.71 49.826,24.705 49.826,24.697C49.827,24.68 49.827,24.645 49.829,24.594C49.831,24.492 49.837,24.325 49.849,24.102C49.872,23.655 49.922,22.993 50.022,22.189C50.226,20.556 50.627,18.467 51.383,16.449C52.147,14.411 53.175,12.712 54.476,11.556C55.674,10.491 57.306,9.694 59.826,9.694L59.826,-0.306ZM59.826,4.711C60.274,9.691 60.27,9.691 60.266,9.692C60.264,9.692 60.26,9.692 60.257,9.692C60.252,9.693 60.247,9.693 60.242,9.694C60.233,9.694 60.225,9.695 60.218,9.695C60.205,9.696 60.197,9.697 60.195,9.697C60.19,9.697 60.206,9.696 60.242,9.695C60.314,9.693 60.462,9.692 60.676,9.701C61.106,9.721 61.787,9.785 62.635,9.976C64.319,10.354 66.668,11.232 69.078,13.291C73.799,17.326 79.826,26.882 79.826,49.694L89.826,49.694C89.826,25.273 83.354,12.338 75.575,5.689C71.734,2.407 67.833,0.895 64.83,0.219C63.335,-0.117 62.063,-0.246 61.125,-0.288C60.656,-0.31 60.267,-0.309 59.972,-0.301C59.825,-0.297 59.701,-0.291 59.601,-0.285C59.551,-0.282 59.508,-0.279 59.471,-0.277C59.452,-0.275 59.435,-0.274 59.42,-0.273C59.412,-0.272 59.405,-0.271 59.398,-0.271C59.394,-0.27 59.39,-0.27 59.388,-0.27C59.383,-0.269 59.378,-0.269 59.826,4.711ZM79.826,49.694C79.826,72.505 73.799,82.062 69.078,86.096C66.668,88.156 64.319,89.033 62.635,89.412C61.787,89.603 61.106,89.667 60.676,89.686C60.462,89.696 60.314,89.694 60.242,89.692C60.206,89.691 60.19,89.69 60.195,89.691C60.197,89.691 60.205,89.691 60.218,89.692C60.225,89.693 60.233,89.693 60.242,89.694C60.247,89.695 60.252,89.695 60.257,89.695C60.26,89.696 60.264,89.696 60.266,89.696C60.27,89.697 60.274,89.697 59.826,94.677C59.378,99.657 59.383,99.657 59.388,99.658C59.39,99.658 59.394,99.658 59.398,99.658C59.405,99.659 59.412,99.66 59.42,99.66C59.435,99.662 59.452,99.663 59.471,99.664C59.508,99.667 59.551,99.67 59.601,99.673C59.701,99.679 59.825,99.685 59.972,99.689C60.267,99.697 60.656,99.697 61.125,99.676C62.063,99.634 63.335,99.505 64.83,99.168C67.833,98.493 71.734,96.981 75.575,93.698C83.354,87.049 89.826,74.114 89.826,49.694L79.826,49.694ZM24.826,39.694L24.826,49.694L34.826,49.694L34.826,39.694L24.826,39.694ZM26.291,53.229L33.791,60.729L40.862,53.658L33.362,46.158L26.291,53.229ZM20.826,79.694L38.826,79.694L38.826,69.694L20.826,69.694L20.826,79.694ZM38.826,79.694C41.544,79.694 43.883,79.698 45.802,79.541C47.778,79.379 49.745,79.023 51.637,78.059L47.096,69.149C46.849,69.275 46.346,69.463 44.987,69.574C43.571,69.69 41.709,69.694 38.826,69.694L38.826,79.694ZM51.636,78.059C54.459,76.621 56.754,74.326 58.192,71.503L49.281,66.964C48.802,67.905 48.037,68.67 47.097,69.149L51.636,78.059ZM58.191,71.504C59.155,69.612 59.512,67.646 59.674,65.669C59.83,63.751 59.826,61.412 59.826,58.694L49.826,58.694C49.826,61.577 49.823,63.438 49.707,64.855C49.596,66.213 49.407,66.717 49.281,66.964L58.191,71.504ZM59.826,58.694L59.826,40.694L49.826,40.694L49.826,58.694L59.826,58.694ZM59.826,40.694C59.826,37.976 59.83,35.637 59.674,33.719C59.512,31.742 59.155,29.776 58.191,27.884L49.281,32.424C49.407,32.671 49.596,33.175 49.707,34.533C49.823,35.95 49.826,37.811 49.826,40.694L59.826,40.694ZM58.192,27.884C56.754,25.061 54.458,22.767 51.636,21.329L47.096,30.239C48.037,30.718 48.802,31.483 49.281,32.423L58.192,27.884ZM51.636,21.329C49.745,20.365 47.778,20.008 45.802,19.847C43.883,19.69 41.544,19.694 38.826,19.694L38.826,29.694C41.709,29.694 43.571,29.698 44.987,29.813C46.346,29.924 46.849,30.113 47.096,30.239L51.636,21.329ZM38.826,19.694L20.826,19.694L20.826,29.694L38.826,29.694L38.826,19.694ZM20.826,19.694C18.109,19.694 15.77,19.69 13.851,19.847C11.875,20.008 9.908,20.365 8.017,21.329L12.557,30.239C12.804,30.113 13.307,29.924 14.666,29.813C16.082,29.698 17.944,29.694 20.826,29.694L20.826,19.694ZM8.017,21.329C5.194,22.767 2.899,25.062 1.461,27.884L10.371,32.424C10.851,31.483 11.616,30.718 12.556,30.239L8.017,21.329ZM1.461,27.884C0.497,29.776 0.141,31.742 -0.021,33.719C-0.177,35.637 -0.174,37.976 -0.174,40.694L9.826,40.694C9.826,37.811 9.83,35.95 9.946,34.533C10.057,33.175 10.245,32.671 10.371,32.424L1.461,27.884ZM-0.174,40.694L-0.174,58.694L9.826,58.694L9.826,40.694L-0.174,40.694ZM-0.174,58.694C-0.174,61.412 -0.177,63.751 -0.021,65.669C0.141,67.646 0.497,69.612 1.461,71.504L10.371,66.964C10.245,66.717 10.057,66.213 9.946,64.855C9.83,63.438 9.826,61.577 9.826,58.694L-0.174,58.694ZM1.461,71.504C2.899,74.326 5.194,76.621 8.017,78.059L12.556,69.149C11.616,68.67 10.851,67.905 10.371,66.964L1.461,71.504ZM8.016,78.059C9.908,79.023 11.874,79.379 13.851,79.541C15.77,79.698 18.109,79.694 20.826,79.694L20.826,69.694C17.944,69.694 16.082,69.69 14.666,69.574C13.307,69.463 12.804,69.275 12.557,69.149L8.016,78.059Z" fill="#000000"/>
</svg>
