<svg width="98" height="116" viewBox="0 0 98 116" fill="none" xmlns="http://www.w3.org/2000/svg" xmlns:xlink="http://www.w3.org/1999/xlink">
<path d="M69.695,0.93C72.351,0.512 74.863,2.27 75.379,4.91C76.363,11.568 76.632,18.516 74.481,24.991C76.161,25.179 77.935,25.578 79.805,26.246C88.327,29.286 93.384,36.114 96.246,43.057C96.925,44.702 96.677,46.584 95.597,47.998C94.517,49.412 92.766,50.146 91.001,49.924C84.197,49.069 80,56.444 80,62.362C80,68.332 84.308,75.789 91.172,74.776C92.907,74.52 94.649,75.192 95.763,76.546C96.877,77.901 97.201,79.74 96.614,81.393C92.021,94.349 83.062,106.846 72.565,113.12C69.433,114.992 66.31,115.182 63.464,114.498C61.141,113.94 59.027,112.804 56.948,111.663C53.993,110.044 52.09,109.108 50,109.108C47.91,109.108 46.007,110.044 43.052,111.663C40.973,112.804 38.859,113.94 36.536,114.498C33.691,115.182 30.567,114.992 27.435,113.12C19.742,108.521 12.94,100.619 8.078,91.808C3.206,82.976 0,72.721 0,63.078C0,57.43 0.918,49.909 3.773,43.009C6.639,36.083 11.692,29.279 20.195,26.246C30.057,22.727 37.233,26.653 42.196,29.79C42.26,25.029 43.057,18.463 46.682,13.287C51.7,6.12 61.257,2.262 69.695,0.93ZM23.555,35.664C29.338,33.601 33.044,35.799 38.106,39.043C41.717,41.367 45.556,43.707 50,43.707C54.444,43.707 58.283,41.367 61.894,39.043C66.955,35.799 70.661,33.601 76.445,35.664C79.368,36.707 81.745,38.552 83.657,40.988C75.392,44.049 70,52.928 70,62.362C70,72.175 75.835,81.388 84.668,84.076C80.357,92.985 70,103.963 67.435,104.536C65.446,104.981 63.218,103.695 61.753,102.893C58.087,100.881 54.277,99.108 50,99.108C45.138,99.108 41.162,101.292 38.528,102.739C36.97,103.594 34.417,105.643 32.565,104.536C26.808,101.095 21.11,94.727 16.834,86.977C12.569,79.247 10,70.647 10,63.078C10,58.339 10.794,52.197 13.014,46.832C15.223,41.493 18.607,37.429 23.555,35.664ZM63.446,25.025C60.895,28.668 56.33,30.61 52.22,31.935C52.06,27.62 52.322,22.665 54.874,19.022C57.424,15.379 61.991,13.437 66.1,12.112C66.26,16.427 65.997,21.382 63.446,25.025Z" clip-rule="evenodd" fill-rule="evenodd" fill="#000000"/>
</svg>
