<svg width="36" height="36" viewBox="0 0 36 36" fill="none" xmlns="http://www.w3.org/2000/svg" xmlns:xlink="http://www.w3.org/1999/xlink">
<path d="M0,36L0,27.5L26.4,1.15C26.8,0.783 27.242,0.5 27.726,0.3C28.21,0.1 28.718,0 29.25,0C29.783,0 30.3,0.1 30.8,0.3C31.3,0.5 31.733,0.8 32.1,1.2L34.85,4C35.25,4.367 35.542,4.8 35.726,5.3C35.91,5.8 36.001,6.3 36,6.8C36,7.333 35.909,7.842 35.726,8.326C35.543,8.81 35.251,9.251 34.85,9.65L8.5,36L0,36ZM29.2,9.6L32,6.8L29.2,4L26.4,6.8L29.2,9.6Z" fill="#3EC444"/>
</svg>
