<svg width="122" height="80" viewBox="0 0 122 80" fill="none" xmlns="http://www.w3.org/2000/svg" xmlns:xlink="http://www.w3.org/1999/xlink">
<path d="M100.626,79.694C100.202,79.694 99.795,79.525 99.495,79.225C99.195,78.925 99.026,78.518 99.026,78.094L99.026,1.294C99.026,0.87 99.195,0.463 99.495,0.163C99.795,-0.138 100.202,-0.306 100.626,-0.306L119.176,-0.306C119.391,-0.313 119.604,-0.276 119.804,-0.199C120.004,-0.122 120.186,-0.005 120.34,0.144C120.494,0.294 120.616,0.472 120.7,0.67C120.784,0.867 120.827,1.08 120.826,1.294L120.826,78.094C120.827,78.308 120.784,78.521 120.7,78.718C120.616,78.916 120.494,79.094 120.34,79.243C120.186,79.393 120.004,79.509 119.804,79.587C119.604,79.664 119.391,79.701 119.176,79.694L100.626,79.694ZM69.526,79.694C69.526,79.694 68.026,79.244 68.026,78.094L68.026,30.944C68.074,29.475 67.823,28.012 67.29,26.642C66.758,25.272 65.953,24.024 64.926,22.973C63.898,21.922 62.669,21.09 61.311,20.526C59.954,19.963 58.496,19.68 57.026,19.694L22.326,19.694C20.326,19.694 20.826,21.194 20.826,21.194L20.826,78.094C20.826,79.444 19.326,79.694 19.326,79.694L2.476,79.694C2.262,79.701 2.049,79.664 1.849,79.587C1.649,79.509 1.466,79.393 1.313,79.243C1.159,79.094 1.036,78.916 0.953,78.718C0.869,78.521 0.826,78.308 0.826,78.094L0.826,1.294C0.826,1.08 0.869,0.867 0.953,0.67C1.036,0.472 1.159,0.294 1.313,0.144C1.466,-0.005 1.649,-0.122 1.849,-0.199C2.049,-0.276 2.262,-0.313 2.476,-0.306L66.776,-0.306C72.417,-0.267 77.815,1.999 81.794,5.997C85.774,9.995 88.013,15.403 88.026,21.044L88.076,78.094C88.076,78.518 87.908,78.925 87.608,79.225C87.308,79.525 86.901,79.694 86.476,79.694L69.526,79.694ZM35.026,79.694C34.629,79.694 34.247,79.536 33.966,79.255C33.684,78.973 33.526,78.592 33.526,78.194L33.526,33.194C33.526,32.796 33.684,32.415 33.966,32.133C34.247,31.852 34.629,31.694 35.026,31.694L53.876,31.694C54.265,31.707 54.634,31.871 54.905,32.151C55.175,32.431 55.327,32.805 55.326,33.194L55.326,78.194C55.326,78.592 55.168,78.973 54.887,79.255C54.606,79.536 54.224,79.694 53.826,79.694L35.026,79.694Z" fill="#000000"/>
</svg>
