<svg width="42" height="56" viewBox="0 0 42 56" fill="none" xmlns="http://www.w3.org/2000/svg" xmlns:xlink="http://www.w3.org/1999/xlink">
<path d="M5.5,54.833C4.079,54.833 2.863,54.328 1.852,53.317C0.841,52.306 0.335,51.089 0.333,49.667L0.333,23.833C0.333,22.413 0.84,21.197 1.852,20.186C2.865,19.175 4.081,18.668 5.5,18.667L8.083,18.667L8.083,13.5C8.083,9.926 9.343,6.881 11.863,4.363C14.382,1.845 17.428,0.585 21,0.583C24.574,0.583 27.62,1.843 30.14,4.363C32.66,6.882 33.918,9.928 33.917,13.5L33.917,18.667L36.5,18.667C37.921,18.667 39.138,19.173 40.15,20.186C41.163,21.198 41.668,22.414 41.667,23.833L41.667,49.667C41.667,51.088 41.161,52.304 40.15,53.317C39.139,54.33 37.923,54.835 36.5,54.833L5.5,54.833ZM21,41.917C22.421,41.917 23.638,41.411 24.65,40.4C25.663,39.389 26.168,38.173 26.167,36.75C26.167,35.329 25.661,34.113 24.65,33.102C23.639,32.091 22.423,31.585 21,31.583C19.579,31.583 18.363,32.09 17.352,33.102C16.341,34.115 15.835,35.331 15.833,36.75C15.833,38.171 16.34,39.388 17.352,40.4C18.365,41.413 19.581,41.918 21,41.917ZM13.25,18.667L28.75,18.667L28.75,13.5C28.75,11.347 27.997,9.517 26.49,8.01C24.983,6.503 23.153,5.75 21,5.75C18.847,5.75 17.017,6.503 15.51,8.01C14.004,9.517 13.25,11.347 13.25,13.5L13.25,18.667Z" fill="#FFFFFF"/>
</svg>
